<svg width="24" height="24" viewBox="0 0 24 24" fill="none" xmlns="http://www.w3.org/2000/svg">
<path fill-rule="evenodd" clip-rule="evenodd" d="M13.6428 3H10.3572H10.3572C9.2734 2.99999 8.39925 2.99998 7.69138 3.05782C6.96253 3.11737 6.32234 3.24318 5.73005 3.54497C4.78924 4.02433 4.02433 4.78924 3.54497 5.73005C3.24318 6.32234 3.11737 6.96253 3.05782 7.69138C2.99998 8.39925 2.99999 9.2734 3 10.3572V10.3572V13.6428V13.6428C2.99999 14.7266 2.99998 15.6007 3.05782 16.3086C3.11737 17.0375 3.24318 17.6777 3.54497 18.27C4.02433 19.2108 4.78924 19.9757 5.73005 20.455C6.32234 20.7568 6.96253 20.8826 7.69138 20.9422C8.39923 21 9.27334 21 10.3571 21H10.3572H13.6428H13.6429C14.7267 21 15.6008 21 16.3086 20.9422C17.0375 20.8826 17.6777 20.7568 18.27 20.455C19.2108 19.9757 19.9757 19.2108 20.455 18.27C20.699 17.7912 20.8279 17.2812 20.8999 16.7183L20.9 16.7184C20.9171 16.5849 20.9309 16.4484 20.9423 16.3086C20.9861 15.7727 20.9968 15.1414 20.9993 14.3959L20.9992 14.3958C21 14.1568 21 13.906 21 13.6429V13.6428V10.3572V10.3571C21 9.27334 21 8.39923 20.9422 7.69138C20.8826 6.96253 20.7568 6.32234 20.455 5.73005C19.9757 4.78924 19.2108 4.02433 18.27 3.54497C17.6777 3.24318 17.0375 3.11737 16.3086 3.05782C15.6007 2.99998 14.7266 2.99999 13.6428 3H13.6428ZM19 13.093V10.4C19 9.26339 18.9992 8.47108 18.9488 7.85424C18.8994 7.24907 18.8072 6.90138 18.673 6.63803C18.3854 6.07354 17.9265 5.6146 17.362 5.32698C17.0986 5.19279 16.7509 5.10062 16.1458 5.05118C15.5289 5.00078 14.7366 5 13.6 5H10.4C9.26339 5 8.47108 5.00078 7.85424 5.05118C7.24907 5.10062 6.90138 5.19279 6.63803 5.32698C6.07354 5.6146 5.6146 6.07354 5.32698 6.63803C5.19279 6.90138 5.10062 7.24907 5.05118 7.85424C5.00078 8.47108 5 9.26339 5 10.4V13.6C5 13.6855 5.00001 13.7691 5.00003 13.8508L5.34998 13.6345L5.42863 13.5857C5.75832 13.381 6.08991 13.1751 6.46348 13.079C6.78957 12.9951 7.12925 12.9779 7.46213 13.0286C7.84347 13.0866 8.19411 13.258 8.54274 13.4285L8.6259 13.4691L9.15426 13.7262C9.68364 13.9838 9.74678 14.001 9.78896 14.0065C9.86015 14.0159 9.93253 14.0099 10.0012 13.9888C10.0418 13.9763 10.1012 13.9489 10.5804 13.6068L13.086 11.8177L13.1791 11.751C13.5634 11.4754 13.949 11.1988 14.394 11.08C14.7815 10.9766 15.1883 10.9679 15.5799 11.0548C16.0295 11.1545 16.4265 11.4145 16.8222 11.6736L16.918 11.7363L19 13.093ZM5.05314 16.1695C5.10305 16.76 5.19456 17.1021 5.32698 17.362C5.6146 17.9265 6.07354 18.3854 6.63803 18.673C6.90138 18.8072 7.24907 18.8994 7.85424 18.9488C8.47108 18.9992 9.26339 19 10.4 19H13.6C14.7366 19 15.5289 18.9992 16.1458 18.9488C16.7509 18.8994 17.0986 18.8072 17.362 18.673C17.9265 18.3854 18.3854 17.9265 18.673 17.362C18.8072 17.0986 18.8994 16.7509 18.9488 16.1458C18.9655 15.9417 18.9767 15.7185 18.9843 15.47L15.8261 13.4119C15.2635 13.0452 15.1928 13.0175 15.1468 13.0073C15.0685 12.99 14.9872 12.9917 14.9096 13.0124C14.8642 13.0245 14.7947 13.0552 14.2482 13.4454L11.7426 15.2344L11.6613 15.2926C11.3226 15.5355 10.9822 15.7796 10.5887 15.9005C10.2455 16.006 9.88362 16.0363 9.52766 15.9894C9.11958 15.9356 8.74325 15.7515 8.36883 15.5684L8.27907 15.5246L7.75072 15.2674C7.25911 15.0282 7.20109 15.0119 7.16146 15.0058C7.09488 14.9957 7.02695 14.9991 6.96173 15.0159C6.92291 15.0259 6.86682 15.048 6.40181 15.3355L5.05314 16.1695ZM9.00015 11C10.1047 11 11.0001 10.1046 11.0001 9C11.0001 7.89543 10.1047 7 9.00015 7C7.89558 7 7.00015 7.89543 7.00015 9C7.00015 10.1046 7.89558 11 9.00015 11Z" fill="#e5e7eb">
</path>
</svg>
